<?xml version="1.0" standalone="no"?>
<!DOCTYPE svg PUBLIC "-//W3C//DTD SVG 20010904//EN"
 "http://www.w3.org/TR/2001/REC-SVG-20010904/DTD/svg10.dtd">
<svg version="1.0" xmlns="http://www.w3.org/2000/svg"
 width="256.000000pt" height="256.000000pt" viewBox="0 0 256.000000 256.000000"
 preserveAspectRatio="xMidYMid meet">

<g transform="translate(0.000000,256.000000) scale(0.100000,-0.100000)"
fill="#000000" stroke="none">
<path d="M1190 2339 c-113 -19 -179 -62 -490 -319 -162 -133 -319 -266 -348
-294 -65 -62 -118 -165 -132 -256 -16 -105 -13 -821 5 -903 38 -181 177 -319
352 -347 81 -14 275 -12 331 2 64 16 134 86 150 150 7 28 12 129 12 255 0 180
3 213 19 248 32 71 123 135 191 135 68 0 159 -64 191 -135 16 -35 19 -68 19
-248 0 -126 5 -227 12 -255 16 -64 86 -134 150 -150 57 -15 250 -16 333 -2
179 29 324 181 354 370 14 85 14 795 0 880 -13 84 -56 177 -109 233 -62 68
-633 537 -698 575 -103 58 -229 81 -342 61z"/>
</g>
</svg>
