<?xml version="1.0" standalone="no"?>
<!DOCTYPE svg PUBLIC "-//W3C//DTD SVG 20010904//EN"
 "http://www.w3.org/TR/2001/REC-SVG-20010904/DTD/svg10.dtd">
<svg version="1.0" xmlns="http://www.w3.org/2000/svg"
 width="96.000000pt" height="96.000000pt" viewBox="0 0 96.000000 96.000000"
 preserveAspectRatio="xMidYMid meet">

<g transform="translate(0.000000,96.000000) scale(0.100000,-0.100000)"
fill="#000000" stroke="none">
<path d="M279 827 c-9 -7 -53 -63 -99 -126 -70 -97 -81 -117 -71 -133 7 -12
11 -86 11 -221 0 -145 3 -206 12 -215 17 -17 679 -17 696 0 9 9 12 71 12 219
0 128 4 210 10 214 6 3 10 10 10 14 0 12 -160 234 -179 248 -22 17 -380 17
-402 0z m121 -154 c85 -119 73 -113 227 -113 l133 0 0 -180 0 -180 -160 0
-160 0 0 108 c0 71 -4 112 -12 120 -16 16 -120 16 -136 0 -8 -8 -12 -49 -12
-120 l0 -108 -40 0 -40 0 0 179 0 180 67 95 c37 53 69 96 72 96 4 0 31 -35 61
-77z"/>
<path d="M532 428 c-7 -7 -12 -37 -12 -68 0 -31 5 -61 12 -68 16 -16 120 -16
136 0 7 7 12 37 12 68 0 31 -5 61 -12 68 -7 7 -37 12 -68 12 -31 0 -61 -5 -68
-12z"/>
</g>
</svg>
