<?xml version="1.0" standalone="no"?>
<!DOCTYPE svg PUBLIC "-//W3C//DTD SVG 20010904//EN"
 "http://www.w3.org/TR/2001/REC-SVG-20010904/DTD/svg10.dtd">
<svg version="1.0" xmlns="http://www.w3.org/2000/svg"
 width="96.000000pt" height="96.000000pt" viewBox="0 0 96.000000 96.000000"
 preserveAspectRatio="xMidYMid meet">

<g transform="translate(0.000000,96.000000) scale(0.100000,-0.100000)"
fill="#000000" stroke="none">
<path d="M426 873 c-36 -10 -311 -165 -328 -185 -10 -11 -18 -29 -18 -39 0
-25 35 -59 60 -59 10 0 88 38 172 85 84 47 160 85 168 85 8 0 84 -38 168 -85
84 -47 162 -85 172 -85 25 0 60 34 60 59 0 33 -31 56 -184 141 -121 66 -159
82 -200 85 -28 2 -60 1 -70 -2z"/>
<path d="M252 468 c-16 -16 -16 -120 0 -136 16 -16 120 -16 136 0 7 7 12 37
12 68 0 31 -5 61 -12 68 -7 7 -37 12 -68 12 -31 0 -61 -5 -68 -12z"/>
<path d="M492 468 c-8 -8 -12 -63 -12 -180 l0 -168 120 0 120 0 0 168 c0 117
-4 172 -12 180 -16 16 -200 16 -216 0z"/>
</g>
</svg>
